<svg width="1213" height="200" viewBox="0 0 1213 200" fill="none" xmlns="http://www.w3.org/2000/svg">
<path d="M390.479 94.26H404.169C416.749 94.26 423.039 87.97 423.039 75.39C423.039 62.81 416.749 56.52 404.169 56.52H390.479V94.26ZM364.949 169V35.43H401.764C417.551 35.43 429.268 38.945 436.914 45.975C444.684 52.8816 448.569 62.6866 448.569 75.39C448.569 88.0933 444.684 97.96 436.914 104.99C429.268 111.897 417.551 115.35 401.764 115.35H390.479V169H364.949Z" fill="black"/>
<path d="M500.227 75.39L519.467 35.43H546.847L514.472 98.7L549.992 169H522.427L500.227 121.825L478.027 169H450.462L486.352 98.7L453.607 35.43H480.987L500.227 75.39Z" fill="black"/>
<path d="M563.065 169V35.43H588.595V146.43H629.665V169H563.065Z" fill="black"/>
<path d="M649.377 169V142.73H675.647V169H649.377Z" fill="black"/>
<path d="M684.541 35.43H708.221L726.166 122.75H726.536L744.851 35.43H769.456L787.956 122.75H788.326L806.086 35.43H829.951L800.721 169H776.116L757.431 77.61H757.061L736.896 169H712.476L684.541 35.43Z" fill="black"/>
<path d="M869.393 146.43H878.273C885.303 146.43 890.729 144.518 894.553 140.695C898.499 136.748 900.473 129.78 900.473 119.79V84.64C900.473 75.1433 898.746 68.36 895.293 64.29C891.963 60.0966 886.289 58 878.273 58H869.393V146.43ZM843.863 35.43H879.383C886.659 35.43 893.134 36.2933 898.808 38.02C904.481 39.6233 909.291 42.275 913.238 45.975C917.184 49.675 920.206 54.485 922.303 60.405C924.523 66.2016 925.756 73.2933 926.003 81.68V122.75C925.756 131.137 924.523 138.29 922.303 144.21C920.206 150.007 917.184 154.755 913.238 158.455C909.291 162.155 904.481 164.868 898.808 166.595C893.134 168.198 886.659 169 879.383 169H843.863V35.43Z" fill="black"/>
<path d="M1006.49 157.9C1003.03 161.847 999.394 164.992 995.571 167.335C991.747 169.678 987.431 170.85 982.621 170.85C976.454 170.85 970.781 170.048 965.601 168.445C960.421 166.842 955.981 164.313 952.281 160.86C948.581 157.283 945.682 152.658 943.586 146.985C941.489 141.312 940.441 134.343 940.441 126.08V78.35C940.441 70.0866 941.489 63.1183 943.586 57.445C945.682 51.7716 948.581 47.2083 952.281 43.755C955.981 40.1783 960.421 37.5883 965.601 35.985C970.781 34.3816 976.454 33.58 982.621 33.58C995.694 33.58 1005.68 37.3416 1012.59 44.865C1019.5 52.265 1023.2 63.6116 1023.69 78.905H998.161C998.161 70.2716 996.742 64.3516 993.906 61.145C991.069 57.815 987.307 56.15 982.621 56.15C977.441 56.15 973.371 57.445 970.411 60.035C967.451 62.625 965.971 67.62 965.971 75.02V129.41C965.971 136.81 967.451 141.805 970.411 144.395C973.371 146.985 977.441 148.28 982.621 148.28C987.431 148.28 991.192 146.677 993.906 143.47C996.742 140.14 998.161 135.577 998.161 129.78V121.64H980.216V100.55H1023.69V169H1010.37L1006.49 157.9Z" fill="black"/>
<path d="M1119.79 35.43V58H1090V169H1064.47V58H1034.69V35.43H1119.79Z" fill="black"/>
<path d="M1188.38 72.615C1186.29 66.325 1183.76 61.7616 1180.8 58.925C1177.84 56.0883 1174.14 54.67 1169.7 54.67C1165.14 54.67 1161.62 55.965 1159.15 58.555C1156.81 61.145 1155.64 64.7216 1155.64 69.285C1155.64 72.615 1157.06 75.575 1159.89 78.165C1162.73 80.6316 1166.25 83.0366 1170.44 85.38C1174.63 87.7233 1179.2 90.2516 1184.13 92.965C1189.06 95.555 1193.63 98.6383 1197.82 102.215C1202.01 105.792 1205.53 110.047 1208.36 114.98C1211.2 119.913 1212.62 125.833 1212.62 132.74C1212.62 138.537 1211.63 143.778 1209.66 148.465C1207.81 153.152 1205.03 157.16 1201.33 160.49C1197.76 163.82 1193.32 166.41 1188.01 168.26C1182.71 169.987 1176.73 170.85 1170.07 170.85C1159.59 170.85 1150.52 167.89 1142.87 161.97C1135.35 156.05 1129.86 146.492 1126.41 133.295L1151.57 127.93C1152.31 132 1153.36 135.453 1154.71 138.29C1156.19 141.003 1157.86 143.223 1159.71 144.95C1161.56 146.677 1163.47 147.91 1165.44 148.65C1167.54 149.39 1169.51 149.76 1171.36 149.76C1175.8 149.76 1179.5 148.403 1182.46 145.69C1185.55 142.853 1187.09 138.907 1187.09 133.85C1187.09 129.657 1185.67 126.08 1182.83 123.12C1180 120.037 1176.48 117.2 1172.29 114.61C1168.1 112.02 1163.53 109.492 1158.6 107.025C1153.67 104.435 1149.1 101.537 1144.91 98.33C1140.72 95 1137.2 91.1766 1134.36 86.86C1131.53 82.5433 1130.11 77.24 1130.11 70.95C1130.11 59.3566 1133.44 50.23 1140.1 43.57C1146.88 36.91 1156.93 33.58 1170.25 33.58C1175.93 33.58 1181.05 34.3816 1185.61 35.985C1190.17 37.5883 1194.18 39.87 1197.63 42.83C1201.09 45.6666 1203.92 49.0583 1206.14 53.005C1208.49 56.9516 1210.21 61.2683 1211.32 65.955L1188.38 72.615Z" fill="black"/>
<path d="M0.908203 34.2795L95.3457 199.449L119.633 199.486L138.85 166.115L122.785 137.901L107.543 164.37L17.3301 6.58875L0.908203 34.2795Z" fill="black"/>
<path fill-rule="evenodd" clip-rule="evenodd" d="M130.896 123.818L146.949 152.047L156.439 168.685L156.402 168.706L173.824 199.409L198.131 199.487L256.629 97.9199L240.236 70.2803L186.09 164.291L163.166 123.888L222.133 21.4863L210 0.5H85L72.8242 21.4091L130.914 123.785L130.896 123.818ZM185.783 28.5L147.129 95.626L109.041 28.5H185.783Z" fill="black"/>
</svg>
